<?xml version="1.0" encoding="UTF-8" standalone="no"?>
<svg
   xmlns:dc="http://purl.org/dc/elements/1.1/"
   xmlns:cc="http://creativecommons.org/ns#"
   xmlns:rdf="http://www.w3.org/1999/02/22-rdf-syntax-ns#"
   xmlns:svg="http://www.w3.org/2000/svg"
   xmlns="http://www.w3.org/2000/svg"
   xmlns:sodipodi="http://sodipodi.sourceforge.net/DTD/sodipodi-0.dtd"
   xmlns:inkscape="http://www.inkscape.org/namespaces/inkscape"
   viewBox="0 0 178.00453 209.32239"
   height="209.32239"
   width="178.00453"
   xml:space="preserve"
   id="svg48"
   version="1.1"
   sodipodi:docname="archipel-logo-1.ai.svg"
   inkscape:version="0.92.4 5da689c313, 2019-01-14"><sodipodi:namedview
     pagecolor="#ffffff"
     bordercolor="#666666"
     borderopacity="1"
     objecttolerance="10"
     gridtolerance="10"
     guidetolerance="10"
     inkscape:pageopacity="0"
     inkscape:pageshadow="2"
     inkscape:window-width="1916"
     inkscape:window-height="954"
     id="namedview350"
     showgrid="false"
     fit-margin-top="0"
     fit-margin-left="0"
     fit-margin-right="0"
     fit-margin-bottom="0"
     inkscape:zoom="2.3787125"
     inkscape:cx="161.66729"
     inkscape:cy="81.812817"
     inkscape:window-x="0"
     inkscape:window-y="124"
     inkscape:window-maximized="0"
     inkscape:current-layer="svg48" /><metadata
     id="metadata54"><rdf:RDF><cc:Work
         rdf:about=""><dc:format>image/svg+xml</dc:format><dc:type
           rdf:resource="http://purl.org/dc/dcmitype/StillImage" /><dc:title></dc:title></cc:Work></rdf:RDF></metadata><defs
     id="defs52"><clipPath
       id="clipPath64"
       clipPathUnits="userSpaceOnUse"><path
         id="path62"
         d="M 0,595.28 H 595.28 V 0 H 0 Z"
         inkscape:connector-curvature="0" /></clipPath></defs><g
     transform="matrix(1.3333333,0,0,-1.3333333,-62.161332,506.76505)"
     id="g56"><g
       id="g58"><g
         clip-path="url(#clipPath64)"
         id="g60"><g
           transform="translate(124.752,320.6182)"
           id="g66"><path
             id="path68"
             style="fill:#231f20;fill-opacity:1;fill-rule:nonzero;stroke:none"
             d="m 0,0 c -14.161,0.216 -25.619,11.81 -25.619,26.019 0,4.477 1.162,8.888 3.359,12.778 L -9.796,45.993 0,51.645 Z m -41.806,32.708 c -0.45,-0.193 -1.24,-0.508 -1.511,-0.557 -2.058,-0.364 -3.25,-0.41 -4.058,-0.41 -0.276,0 -0.525,0.006 -0.763,0.011 -0.194,0.004 -0.381,0.009 -0.565,0.01 l 35.319,21.322 c 3.063,1.706 6.384,2.571 9.87,2.571 0.44,0 0.883,-0.016 1.327,-0.045 L -24.5,42.722 c -0.182,-0.105 -0.351,-0.227 -0.513,-0.358 z M -74.094,1.884 c 0,0.408 0.012,0.814 0.031,1.219 0.003,0.08 0.006,0.161 0.011,0.242 0.021,0.388 0.05,0.774 0.088,1.158 0.007,0.076 0.016,0.152 0.025,0.228 0.038,0.361 0.083,0.719 0.136,1.075 0.007,0.045 0.012,0.091 0.019,0.136 0.058,0.375 0.126,0.746 0.199,1.116 0.019,0.095 0.039,0.191 0.059,0.287 0.075,0.356 0.155,0.711 0.245,1.062 0.022,0.088 0.047,0.175 0.07,0.263 0.078,0.294 0.161,0.586 0.249,0.876 0.028,0.094 0.055,0.188 0.084,0.281 0.103,0.325 0.212,0.647 0.327,0.966 0.045,0.124 0.09,0.247 0.136,0.37 0.11,0.293 0.224,0.585 0.345,0.873 0.055,0.134 0.114,0.266 0.172,0.398 0.092,0.213 0.188,0.425 0.287,0.635 0.065,0.14 0.13,0.281 0.198,0.419 0.131,0.266 0.266,0.53 0.405,0.79 0.084,0.159 0.171,0.316 0.258,0.472 0.087,0.156 0.177,0.31 0.267,0.463 0.151,0.26 0.307,0.516 0.467,0.769 0.077,0.121 0.153,0.241 0.231,0.36 0.383,0.583 0.787,1.15 1.213,1.7 0.051,0.066 0.103,0.131 0.154,0.196 0.272,0.345 0.552,0.682 0.84,1.012 0.024,0.027 0.047,0.055 0.071,0.082 0.5,0.567 1.024,1.113 1.569,1.635 0.014,0.014 0.028,0.027 0.042,0.04 1.707,1.627 3.626,3.032 5.718,4.159 h 10e-4 c 0.269,0.145 0.542,0.284 0.818,0.418 0.269,0.134 0.543,0.26 0.818,0.384 0.002,0.001 0.005,0.003 0.007,0.004 h 10e-4 c 3.315,1.498 6.991,2.338 10.865,2.338 v -2.695 -50.158 c -14.595,0 -26.426,11.832 -26.426,26.427 m 70.58,54.175 c 0.035,0 0.07,-0.002 0.105,-0.002 -0.08,10e-4 -0.159,-0.002 -0.238,-0.002 0.044,0 0.088,0.004 0.133,0.004 M 4.38,55.248 c -0.004,0.047 -0.011,0.091 -0.018,0.136 -0.013,0.095 -0.027,0.184 -0.043,0.26 -0.5,2.73 -3.076,3.189 -5.059,3.544 -5.06,0.906 -10.222,-0.582 -14.703,-3.055 -0.046,-0.024 -0.092,-0.049 -0.137,-0.074 -0.117,-0.067 -11.942,-6.553 -23.433,-13.401 -24.074,-14.347 -25.984,-15.422 -26.892,-16.387 -0.001,-0.002 -0.002,-0.003 -0.003,-0.004 -7.416,-5.562 -12.223,-14.422 -12.223,-24.383 0,-16.599 13.346,-30.13 29.87,-30.448 0.198,-0.004 0.394,-0.015 0.593,-0.015 1.575,0 2.935,0.904 3.601,2.219 l 0.023,-0.042 10.025,5.66 -1.968,3.487 -7.645,-4.316 v 48.029 l 14.962,8.638 c -0.914,-2.927 -1.389,-5.989 -1.389,-9.077 0,-16.761 13.622,-30.415 30.38,-30.462 0.029,-0.001 0.057,-0.001 0.083,-0.001 2.229,0 4.036,1.807 4.036,4.036 v 52.853 c 0.028,1.348 0.006,2.232 -0.06,2.803"
             inkscape:connector-curvature="0" /></g><g
           transform="translate(91.5933,248.8369)"
           id="g70"><path
             id="path72"
             style="fill:#ffffff;fill-opacity:1;fill-rule:nonzero;stroke:none"
             d="m 0,0 41,23.672 v 74.38 L 0,74.38 Z"
             inkscape:connector-curvature="0" /></g><g
           transform="translate(132.5937,272.5088)"
           id="g74"><path
             id="path76"
             style="fill:#231f20;fill-opacity:1;fill-rule:nonzero;stroke:none"
             d="m 0,0 -41,-23.672 v 47.662 0 c 1.476,0 2.868,0.812 3.576,2.165 l 17.01,32.501 c 0.653,1.248 0.595,2.715 -0.084,3.889 L 0,74.38 Z M -41,50.707 -23.99,60.528 -41,28.026 Z M 2.018,77.875 C 1.394,78.236 0.697,78.416 0,78.416 c -0.697,0 -1.394,-0.18 -2.018,-0.541 L -43.019,54.204 c -1.249,-0.722 -2.018,-2.054 -2.018,-3.496 V 50.707 28.026 -23.672 c 0,-1.442 0.769,-2.774 2.018,-3.495 0.625,-0.361 1.322,-0.541 2.019,-0.541 0.696,0 1.394,0.18 2.018,0.541 l 41,23.672 C 3.267,-2.774 4.037,-1.442 4.037,0 v 74.38 c 0,1.442 -0.77,2.774 -2.019,3.495"
             inkscape:connector-curvature="0" /></g><g
           transform="translate(91.5933,300.5352)"
           id="g78"><path
             id="path80"
             style="fill:#cceffc;fill-opacity:1;fill-rule:nonzero;stroke:none"
             d="M 0,0 17.01,32.502 0,22.681 Z"
             inkscape:connector-curvature="0" /></g><g
           transform="translate(103.0342,248.8369)"
           id="g82"><path
             id="path84"
             style="fill:#ffffff;fill-opacity:1;fill-rule:nonzero;stroke:none"
             d="m 0,0 41,23.672 v 74.38 L 0,74.38 Z"
             inkscape:connector-curvature="0" /></g><g
           transform="translate(144.0347,272.5088)"
           id="g86"><path
             id="path88"
             style="fill:#231f20;fill-opacity:1;fill-rule:nonzero;stroke:none"
             d="m 0,0 -41,-23.672 v 47.662 0 c 1.476,0 2.868,0.812 3.576,2.165 l 17.01,32.501 c 0.653,1.248 0.595,2.715 -0.084,3.889 L 0,74.38 Z M -41,50.707 -23.99,60.528 -41,28.026 Z M 2.018,77.875 C 1.394,78.236 0.697,78.416 0,78.416 c -0.697,0 -1.394,-0.18 -2.018,-0.541 L -43.019,54.204 c -1.249,-0.722 -2.018,-2.054 -2.018,-3.496 V 50.707 28.026 -23.672 c 0,-1.442 0.769,-2.774 2.018,-3.495 0.625,-0.361 1.322,-0.541 2.019,-0.541 0.696,0 1.393,0.18 2.018,0.541 l 41,23.672 C 3.267,-2.774 4.037,-1.442 4.037,0 v 74.38 c 0,1.442 -0.77,2.774 -2.019,3.495"
             inkscape:connector-curvature="0" /></g><g
           transform="translate(103.0342,300.5352)"
           id="g90"><path
             id="path92"
             style="fill:#fde3ac;fill-opacity:1;fill-rule:nonzero;stroke:none"
             d="M 0,0 17.01,32.502 0,22.681 Z"
             inkscape:connector-curvature="0" /></g><g
           transform="translate(114.4751,248.8369)"
           id="g94"><path
             id="path96"
             style="fill:#ffffff;fill-opacity:1;fill-rule:nonzero;stroke:none"
             d="m 0,0 41,23.672 v 74.38 L 0,74.38 Z"
             inkscape:connector-curvature="0" /></g><g
           transform="translate(155.4756,272.5088)"
           id="g98"><path
             id="path100"
             style="fill:#231f20;fill-opacity:1;fill-rule:nonzero;stroke:none"
             d="m 0,0 -41,-23.672 v 47.662 0 c 1.476,0 2.868,0.812 3.575,2.165 l 17.011,32.501 c 0.653,1.248 0.595,2.715 -0.084,3.889 L 0,74.38 Z M -41,50.707 -23.99,60.528 -41,28.026 Z M 2.018,77.875 C 1.394,78.236 0.697,78.416 0,78.416 c -0.697,0 -1.394,-0.18 -2.018,-0.541 L -43.019,54.204 c -1.249,-0.722 -2.018,-2.054 -2.018,-3.496 V 50.707 28.026 -23.672 c 0,-1.442 0.769,-2.774 2.018,-3.495 0.624,-0.361 1.321,-0.541 2.019,-0.541 0.696,0 1.393,0.18 2.017,0.541 L 2.018,-3.495 C 3.267,-2.774 4.036,-1.442 4.036,0 v 74.38 c 0,1.442 -0.769,2.774 -2.018,3.495"
             inkscape:connector-curvature="0" /></g><g
           transform="translate(114.4751,300.5352)"
           id="g102"><path
             id="path104"
             style="fill:#fbccd2;fill-opacity:1;fill-rule:nonzero;stroke:none"
             d="M 0,0 17.01,32.502 0,22.681 Z"
             inkscape:connector-curvature="0" /></g><g
           transform="translate(126.4878,254.5571)"
           id="g106"><path
             id="path108"
             style="fill:#ffffff;fill-opacity:1;fill-rule:nonzero;stroke:none"
             d="M 0,0 41,23.672 V 99.195 L 0,75.523 Z"
             inkscape:connector-curvature="0" /></g><g
           transform="translate(167.4883,278.229)"
           id="g110"><path
             id="path112"
             style="fill:#231f20;fill-opacity:1;fill-rule:nonzero;stroke:none"
             d="m 0,0 -41,-23.672 v 48.806 0 c 1.476,0 2.868,0.812 3.576,2.165 l 17.01,32.501 c 0.653,1.247 0.595,2.714 -0.084,3.889 L 0,75.523 Z M -41,51.851 -23.99,61.672 -41,29.17 Z M 2.018,79.019 C 1.394,79.379 0.697,79.56 0,79.56 c -0.697,0 -1.394,-0.181 -2.018,-0.541 L -43.019,55.347 c -1.249,-0.721 -2.018,-2.054 -2.018,-3.495 V 51.851 29.17 -24.244 c 0,-1.442 0.769,-2.774 2.018,-3.495 0.625,-0.361 1.322,-0.541 2.019,-0.541 0.696,0 1.393,0.18 2.018,0.541 l 41,23.672 c 1.249,0.721 2.019,2.053 2.019,3.495 v 76.095 c 0,1.442 -0.77,2.775 -2.019,3.496"
             inkscape:connector-curvature="0" /></g><g
           transform="translate(126.4878,307.3994)"
           id="g114"><path
             id="path116"
             style="fill:#cceccd;fill-opacity:1;fill-rule:nonzero;stroke:none"
             d="M 0,0 17.01,32.501 0,22.68 Z"
             inkscape:connector-curvature="0" /></g><g
           transform="translate(153.8843,265.667)"
           id="g118"><path
             id="path120"
             style="fill:#ffffff;fill-opacity:1;fill-rule:nonzero;stroke:none"
             d="m 0,0 c -8.188,-4.728 -15.281,-2.597 -18.775,4.477 l -4.781,-2.759 v -40.266 l 45.76,26.423 V 28.126 L 18.772,26.145 C 15.276,15.041 8.186,4.726 0,0"
             inkscape:connector-curvature="0" /></g><g
           transform="translate(115.0596,268.5903)"
           id="g122"><path
             id="path124"
             style="fill:#231f20;fill-opacity:1;fill-rule:nonzero;stroke:none"
             d="m 0,0 -23.311,13.458 c -1.642,0.948 -2.972,-0.058 -2.972,-2.247 v -0.462 c 0,-2.189 1.33,-4.732 2.972,-5.68 L 0,-8.389 c 1.642,-0.948 2.973,0.058 2.972,2.247 l 10e-4,0.463 C 2.972,-3.491 1.642,-0.948 0,0"
             inkscape:connector-curvature="0" /></g><g
           transform="translate(176.0884,253.542)"
           id="g126"><path
             id="path128"
             style="fill:#231f20;fill-opacity:1;fill-rule:nonzero;stroke:none"
             d="m 0,0 -45.76,-26.423 v 40.266 l 4.781,2.759 c 3.494,-7.074 10.587,-9.205 18.775,-4.477 8.185,4.726 15.276,15.041 18.772,26.145 L 0,40.251 Z M -49.797,-26.423 -95.561,0 V 40.259 L -49.797,13.843 Z M 3.488,42.28 C 3.139,42.884 2.635,43.397 2.01,43.758 l -7.146,3.68 c -0.633,0.365 -1.328,0.541 -2.015,0.541 -1.264,0 0.541,-7.223 0.541,-7.223 -0.295,-0.379 -0.525,-0.808 -0.672,-1.274 -3.291,-10.455 -9.941,-19.821 -16.941,-23.862 -2.284,-1.319 -4.42,-1.988 -6.346,-1.988 -2.947,0 -5.232,1.601 -6.792,4.758 -0.493,1 -1.38,1.751 -2.448,2.075 -0.383,0.116 -0.777,0.173 -1.17,0.173 -0.702,0 -1.398,-0.182 -2.018,-0.54 l -4.781,-2.759 c 0,0 0,-10e-4 -0.001,-10e-4 0,0 0,0 0,0 l -45.764,26.416 c -0.447,0.258 -0.931,0.42 -1.425,0.493 v -1.714 c 0,-2.229 -1.807,-4.036 -4.036,-4.036 -0.199,0 -0.395,0.011 -0.593,0.015 V 0 c 0,-1.442 0.769,-2.774 2.018,-3.496 l 45.764,-26.423 c 0.625,-0.361 1.321,-0.541 2.018,-0.541 h 3.263 c 0.021,0 0.037,0.006 0.057,0.007 0.2,-0.004 0.432,-0.007 0.717,-0.007 0.697,0 1.394,0.181 2.018,0.541 L 2.018,-3.496 C 3.267,-2.774 4.036,-1.442 4.036,0 v 40.251 c 0,0.726 -0.196,1.423 -0.548,2.029"
             inkscape:connector-curvature="0" /></g><g
           transform="translate(88.7769,279.8013)"
           id="g130"><path
             id="path132"
             style="fill:#ffffff;fill-opacity:1;fill-rule:nonzero;stroke:none"
             d="m 0,0 c 0,2.189 1.33,3.195 2.972,2.247 l 23.311,-13.458 c 1.641,-0.948 2.972,-3.491 2.972,-5.679 v -0.463 c 0,-2.189 -1.331,-3.195 -2.972,-2.247 L 2.972,-6.142 C 1.33,-5.194 0,-2.651 0,-0.462 Z m -8.25,-26.259 45.765,-26.424 v 40.266 L -8.25,14 Z"
             inkscape:connector-curvature="0" /></g><g
           transform="translate(50.9487,326.4243)"
           id="g134"><path
             id="path136"
             style="fill:#ffffff;fill-opacity:1;fill-rule:nonzero;stroke:none"
             d="M 0,0 C 0.007,0.045 0.012,0.091 0.02,0.136 0.012,0.091 0.007,0.045 0,0"
             inkscape:connector-curvature="0" /></g><g
           transform="translate(51.167,327.6758)"
           id="g138"><path
             id="path140"
             style="fill:#ffffff;fill-opacity:1;fill-rule:nonzero;stroke:none"
             d="M 0,0 C 0.019,0.096 0.039,0.191 0.059,0.287 0.039,0.191 0.019,0.096 0,0"
             inkscape:connector-curvature="0" /></g><g
           transform="translate(50.6885,323.7207)"
           id="g142"><path
             id="path144"
             style="fill:#ffffff;fill-opacity:1;fill-rule:nonzero;stroke:none"
             d="M 0,0 C 0.003,0.081 0.007,0.162 0.011,0.242 0.007,0.162 0.003,0.081 0,0"
             inkscape:connector-curvature="0" /></g><g
           transform="translate(50.7876,325.1216)"
           id="g146"><path
             id="path148"
             style="fill:#ffffff;fill-opacity:1;fill-rule:nonzero;stroke:none"
             d="M 0,0 C 0.007,0.076 0.017,0.151 0.025,0.228 0.017,0.151 0.007,0.076 0,0"
             inkscape:connector-curvature="0" /></g><g
           transform="translate(53.1406,333.6875)"
           id="g150"><path
             id="path152"
             style="fill:#ffffff;fill-opacity:1;fill-rule:nonzero;stroke:none"
             d="M 0,0 C 0.065,0.14 0.13,0.28 0.199,0.419 0.13,0.28 0.065,0.14 0,0"
             inkscape:connector-curvature="0" /></g><g
           transform="translate(52.6816,332.6543)"
           id="g154"><path
             id="path156"
             style="fill:#ffffff;fill-opacity:1;fill-rule:nonzero;stroke:none"
             d="M 0,0 C 0.055,0.134 0.114,0.266 0.172,0.398 0.114,0.266 0.055,0.134 0,0"
             inkscape:connector-curvature="0" /></g><g
           transform="translate(53.7437,334.896)"
           id="g158"><path
             id="path160"
             style="fill:#ffffff;fill-opacity:1;fill-rule:nonzero;stroke:none"
             d="M 0,0 C 0.084,0.159 0.171,0.316 0.259,0.473 0.171,0.316 0.084,0.159 0,0"
             inkscape:connector-curvature="0" /></g><g
           transform="translate(51.4707,329.0249)"
           id="g162"><path
             id="path164"
             style="fill:#ffffff;fill-opacity:1;fill-rule:nonzero;stroke:none"
             d="M 0,0 C 0.022,0.088 0.047,0.175 0.07,0.263 0.047,0.175 0.022,0.088 0,0"
             inkscape:connector-curvature="0" /></g><g
           transform="translate(52.2012,331.4116)"
           id="g166"><path
             id="path168"
             style="fill:#ffffff;fill-opacity:1;fill-rule:nonzero;stroke:none"
             d="M 0,0 C 0.044,0.124 0.09,0.247 0.136,0.37 0.09,0.247 0.044,0.124 0,0"
             inkscape:connector-curvature="0" /></g><g
           transform="translate(54.2686,335.8315)"
           id="g170"><path
             id="path172"
             style="fill:#ffffff;fill-opacity:1;fill-rule:nonzero;stroke:none"
             d="M 0,0 C 0.152,0.259 0.308,0.515 0.468,0.769 0.308,0.515 0.151,0.259 0,0"
             inkscape:connector-curvature="0" /></g><g
           transform="translate(51.79,330.1646)"
           id="g174"><path
             id="path176"
             style="fill:#ffffff;fill-opacity:1;fill-rule:nonzero;stroke:none"
             d="M 0,0 C 0.028,0.093 0.055,0.187 0.084,0.281 0.055,0.187 0.028,0.093 0,0"
             inkscape:connector-curvature="0" /></g></g></g></g></svg>